<svg xmlns="http://www.w3.org/2000/svg" width="23.548" height="23.548" viewBox="0 0 23.548 23.548">
  <path id="Icon_awesome-check-circle" data-name="Icon awesome-check-circle" d="M24.11,12.336A11.774,11.774,0,1,1,12.336.563,11.774,11.774,0,0,1,24.11,12.336ZM10.974,18.571,19.71,9.835a.76.76,0,0,0,0-1.074L18.636,7.687a.76.76,0,0,0-1.074,0l-7.124,7.124L7.111,11.485a.76.76,0,0,0-1.074,0L4.963,12.559a.76.76,0,0,0,0,1.074L9.9,18.57A.76.76,0,0,0,10.974,18.571Z" transform="translate(-0.563 -0.563)" fill="#e9bd1e"/>
</svg>
