<svg xmlns="http://www.w3.org/2000/svg" width="50" height="50" viewBox="0 0 50 50">
  <g id="Group_51" data-name="Group 51" transform="translate(-44 -542)">
    <circle id="Ellipse_4" data-name="Ellipse 4" cx="25" cy="25" r="25" transform="translate(44 542)" fill="#e9bd1e"/>
    <path id="Icon_awesome-credit-card" data-name="Icon awesome-credit-card" d="M0,22.546a2.436,2.436,0,0,0,2.435,2.435H26.79a2.436,2.436,0,0,0,2.435-2.435v-8.93H0ZM9.742,19.1a.611.611,0,0,1,.609-.609h6.9a.611.611,0,0,1,.609.609v2.03a.611.611,0,0,1-.609.609h-6.9a.611.611,0,0,1-.609-.609Zm-6.495,0a.611.611,0,0,1,.609-.609H7.509a.611.611,0,0,1,.609.609v2.03a.611.611,0,0,1-.609.609H3.856a.611.611,0,0,1-.609-.609ZM29.226,4.685V7.121H0V4.685A2.436,2.436,0,0,1,2.435,2.25H26.79A2.436,2.436,0,0,1,29.226,4.685Z" transform="translate(54.387 553.385)" fill="#fff"/>
  </g>
</svg>
