<svg xmlns="http://www.w3.org/2000/svg" width="50" height="50" viewBox="0 0 50 50">
  <g id="Group_53" data-name="Group 53" transform="translate(-44 -737)">
    <circle id="Ellipse_6" data-name="Ellipse 6" cx="25" cy="25" r="25" transform="translate(44 737)" fill="#e9bd1e"/>
    <path id="Icon_awesome-google" data-name="Icon awesome-google" d="M34.313,18.408c0,9.949-6.813,17.03-16.875,17.03a17.438,17.438,0,0,1,0-34.875A16.769,16.769,0,0,1,29.13,5.126L24.384,9.689C18.176,3.7,6.63,8.2,6.63,18A10.923,10.923,0,0,0,17.438,29.011c6.9,0,9.492-4.95,9.9-7.516h-9.9v-6h16.6A15.287,15.287,0,0,1,34.313,18.408Z" transform="translate(51.844 744)" fill="#fff"/>
  </g>
</svg>
