<svg id="Group_61" data-name="Group 61" xmlns="http://www.w3.org/2000/svg" width="58" height="58" viewBox="0 0 58 58">
  <rect id="Rectangle_135" data-name="Rectangle 135" width="58" height="58" rx="19" fill="#161a49"/>
  <path id="Icon_awesome-user-circle" data-name="Icon awesome-user-circle" d="M23.274.563A23.274,23.274,0,1,0,46.547,23.836,23.27,23.27,0,0,0,23.274.563Zm0,9.009a8.258,8.258,0,1,1-8.258,8.258A8.258,8.258,0,0,1,23.274,9.572Zm0,32.283a17.983,17.983,0,0,1-13.748-6.4,10.463,10.463,0,0,1,9.244-5.612,2.3,2.3,0,0,1,.666.1,12.425,12.425,0,0,0,3.838.648,12.378,12.378,0,0,0,3.838-.648,2.3,2.3,0,0,1,.666-.1,10.463,10.463,0,0,1,9.244,5.612A17.983,17.983,0,0,1,23.274,41.854Z" transform="translate(6.148 5.585)" fill="#fff"/>
</svg>
