<svg xmlns="http://www.w3.org/2000/svg" width="30.849" height="30.849" viewBox="0 0 30.849 30.849">
  <path id="Icon_metro-question" data-name="Icon metro-question" d="M16.067,23.136h3.856v3.856H16.067Zm7.712-13.5a1.928,1.928,0,0,1,1.928,1.928v5.784l-5.784,3.856H16.067V19.28l5.784-3.856V13.5h-9.64V9.64H23.779ZM17.995,4.82a12.532,12.532,0,1,0,8.862,3.671A12.45,12.45,0,0,0,17.995,4.82Zm0-2.892A15.424,15.424,0,1,1,2.571,17.352,15.424,15.424,0,0,1,17.995,1.928Z" transform="translate(-2.571 -1.928)" fill="#e9bd1e"/>
</svg>
