<svg xmlns="http://www.w3.org/2000/svg" width="31" height="31" viewBox="0 0 31 31">
  <path id="Icon_awesome-phone-alt" data-name="Icon awesome-phone-alt" d="M30.115,21.906,23.334,19a1.453,1.453,0,0,0-1.7.418l-3,3.669A22.442,22.442,0,0,1,7.907,12.358l3.669-3a1.449,1.449,0,0,0,.418-1.7L9.088.879A1.463,1.463,0,0,0,7.423.037L1.126,1.49A1.453,1.453,0,0,0,0,2.906,28.091,28.091,0,0,0,28.094,31a1.453,1.453,0,0,0,1.417-1.126l1.453-6.3a1.471,1.471,0,0,0-.848-1.671Z" transform="translate(0 0)" fill="#d3d3d3"/>
</svg>
