<svg xmlns="http://www.w3.org/2000/svg" width="28.516" height="28.523" viewBox="0 0 28.516 28.523">
  <path id="Icon_ionic-ios-settings" data-name="Icon ionic-ios-settings" d="M30.662,18.758a3.669,3.669,0,0,1,2.354-3.423,14.545,14.545,0,0,0-1.76-4.24,3.719,3.719,0,0,1-1.493.319A3.661,3.661,0,0,1,26.414,6.26,14.5,14.5,0,0,0,22.181,4.5a3.666,3.666,0,0,1-6.847,0,14.545,14.545,0,0,0-4.24,1.76,3.661,3.661,0,0,1-3.349,5.154,3.6,3.6,0,0,1-1.493-.319A14.866,14.866,0,0,0,4.5,15.342a3.668,3.668,0,0,1,.007,6.847,14.545,14.545,0,0,0,1.76,4.24A3.663,3.663,0,0,1,11.1,31.263a14.63,14.63,0,0,0,4.24,1.76,3.66,3.66,0,0,1,6.832,0,14.545,14.545,0,0,0,4.24-1.76,3.666,3.666,0,0,1,4.834-4.834,14.63,14.63,0,0,0,1.76-4.24A3.687,3.687,0,0,1,30.662,18.758ZM18.825,24.691a5.941,5.941,0,1,1,5.941-5.941A5.939,5.939,0,0,1,18.825,24.691Z" transform="translate(-4.5 -4.5)" fill="#e9bd1e"/>
</svg>
