<svg xmlns="http://www.w3.org/2000/svg" width="16.313" height="28.83" viewBox="0 0 16.313 28.83">
  <path id="Icon_metro-money" data-name="Icon metro-money" d="M19.473,19.08c-3.636-.945-4.8-1.914-4.8-3.436,0-1.746,1.61-2.971,4.324-2.971,2.851,0,3.908,1.361,4,3.363h3.54a6.376,6.376,0,0,0-5.141-6.1V6.427h-4.8v3.46c-3.107.681-5.606,2.683-5.606,5.782,0,3.7,3.067,5.542,7.528,6.615,4.012.961,4.8,2.362,4.8,3.868,0,1.1-.777,2.859-4.324,2.859-3.3,0-4.6-1.482-4.773-3.363H10.688c.2,3.508,2.819,5.47,5.9,6.134v3.476h4.8V31.813c3.115-.6,5.606-2.4,5.606-5.694,0-4.533-3.892-6.086-7.528-7.039Z" transform="translate(-10.688 -6.427)" fill="#e9bd1e"/>
</svg>
