<svg xmlns="http://www.w3.org/2000/svg" width="27.256" height="23.849" viewBox="0 0 27.256 23.849">
  <path id="Icon_awesome-wallet" data-name="Icon awesome-wallet" d="M24.552,7.361H4.259a.852.852,0,0,1,0-1.7H24.7a.852.852,0,0,0,.852-.852A2.555,2.555,0,0,0,23,2.25H3.407A3.407,3.407,0,0,0,0,5.657V22.692A3.407,3.407,0,0,0,3.407,26.1H24.552a2.636,2.636,0,0,0,2.7-2.555V9.916A2.636,2.636,0,0,0,24.552,7.361ZM22.146,18.433a1.7,1.7,0,1,1,1.7-1.7A1.7,1.7,0,0,1,22.146,18.433Z" transform="translate(0 -2.25)" fill="#e9bd1e"/>
</svg>
