<svg xmlns="http://www.w3.org/2000/svg" xmlns:xlink="http://www.w3.org/1999/xlink" width="161.011" height="169.881" viewBox="0 0 161.011 169.881">
  <defs>
    <clipPath id="clip-path">
      <rect id="Rectangle_115" data-name="Rectangle 115" width="161.011" height="169.881" fill="none"/>
    </clipPath>
  </defs>
  <g id="Group_55" data-name="Group 55" transform="translate(0 0.003)">
    <g id="Group_54" data-name="Group 54" transform="translate(0 -0.003)" clip-path="url(#clip-path)">
      <path id="Path_64" data-name="Path 64" d="M314.325,270.513c0-24.319-21.186-44.034-47.32-44.034s-47.32,19.715-47.32,44.034S240.87,314.548,267,314.548c.535,0,1.067-.011,1.6-.028l7.132,10.2,23.726-22.161q1.072-.941,2.079-1.942l.062-.058h0a42.281,42.281,0,0,0,12.726-30.04" transform="translate(-186.499 -192.267)" fill="#e5e5e5"/>
      <path id="Path_65" data-name="Path 65" d="M192.717,148.42a207.863,207.863,0,0,0,6.745-31.591,147.5,147.5,0,0,0,1.081-16.49,59.517,59.517,0,0,0-1.926-16.268,66.719,66.719,0,0,0-14-25.647,73.568,73.568,0,0,0-22.678-17.69A75.072,75.072,0,0,0,132.3,32.815a71.9,71.9,0,0,0-30.349,4.959A76.9,76.9,0,0,0,77.4,53.387,70.324,70.324,0,0,0,61.007,77.153,55.52,55.52,0,0,0,57.054,92.4a91.874,91.874,0,0,0-.045,16.254,171.1,171.1,0,0,0,5.386,32.058c.674,2.578,1.387,5.146,2.115,7.709a2.474,2.474,0,1,0,4.77-1.315c-1.45-5.1-2.831-10.222-3.968-15.4q-.832-3.794-1.5-7.621-.344-1.979-.639-3.965-.138-.927-.264-1.856c.008.059.038.286,0-.006q-.035-.266-.069-.531-.068-.531-.133-1.063a146.762,146.762,0,0,1-1.071-15.727,69.48,69.48,0,0,1,.309-7.995c.032-.316.069-.63.105-.945,0-.033.268-1.809.385-2.443q.351-1.9.844-3.77a56.2,56.2,0,0,1,2.364-6.988c.186-.454.064-.156.023-.059q.092-.216.186-.431.164-.377.332-.751.361-.8.744-1.595.74-1.53,1.559-3.02a66.536,66.536,0,0,1,3.638-5.872q.467-.674.951-1.336.242-.331.488-.66l.282-.374c.025-.033.3-.395.163-.215-.168.216.131-.167.167-.212l.218-.276q.292-.367.589-.73.557-.681,1.131-1.347A72.141,72.141,0,0,1,86.1,52.387c.051-.04.369-.286.061-.049l.282-.216q.33-.251.663-.5.761-.565,1.536-1.109,1.405-.987,2.855-1.907,2.951-1.873,6.069-3.463,1.532-.781,3.1-1.492c.5-.229,1.013-.449,1.521-.67.262-.114,0,0-.044.018l.439-.182q.455-.187.913-.368a68.988,68.988,0,0,1,7.124-2.374,70.359,70.359,0,0,1,7.348-1.6q.441-.071.882-.137c.105-.016.886-.127.479-.072.632-.086,1.265-.159,1.9-.225q1.838-.193,3.685-.29a69.587,69.587,0,0,1,7.506.013q1.819.1,3.631.3.5.054,1,.114c.11.013.718.09.338.04.663.087,1.324.19,1.984.3A72.038,72.038,0,0,1,153.49,42.36q.819.315,1.63.65c.047.019.522.219.283.118-.211-.09.167.072.166.072q.518.225,1.033.455,1.661.747,3.283,1.577,3.114,1.593,6.063,3.484,1.444.926,2.843,1.919.676.48,1.34.975c.221.165.442.332.662.5.321.243-.255-.2.062.047l.373.292q2.741,2.162,5.263,4.584a69.649,69.649,0,0,1,4.776,5.069q.539.632,1.062,1.278.264.325.524.652.149.187.3.376c.089.113.211.274.052.066q1.091,1.423,2.109,2.9a66.695,66.695,0,0,1,3.632,5.9q.857,1.572,1.624,3.192.357.755.694,1.521l.143.328c.023.053.216.508.109.254-.1-.229.055.134.059.145.075.184.15.369.224.553a56.322,56.322,0,0,1,2.219,6.749q.484,1.869.834,3.77.169.918.3,1.842c.007.047.082.589.048.332-.03-.224.026.21.024.2.042.353.083.706.119,1.06a93.986,93.986,0,0,1-.1,16.012q-.276,3.939-.759,7.861-.066.529-.135,1.058c.008-.059.039-.289,0,0q-.036.264-.073.528-.139.989-.291,1.976-.294,1.907-.635,3.806c-.923,5.149-2.091,10.252-3.4,15.315q-.953,3.675-2,7.326a2.474,2.474,0,1,0,4.77,1.315" transform="translate(-48.109 -27.77)" fill="#fff"/>
      <path id="Path_66" data-name="Path 66" d="M555.479,756.292a71.9,71.9,0,0,0,32.1-13.5,74.175,74.175,0,0,0,21.878-25.825,67.927,67.927,0,0,0,6.264-18.7,1.7,1.7,0,0,0-1.152-2.028,1.663,1.663,0,0,0-2.028,1.152,66.628,66.628,0,0,1-13.821,30.179,71.832,71.832,0,0,1-25.737,20.1,69.219,69.219,0,0,1-18.382,5.452,1.66,1.66,0,0,0-1.152,2.028,1.69,1.69,0,0,0,2.028,1.152" transform="translate(-469.803 -591.015)" fill="#fff"/>
      <path id="Path_67" data-name="Path 67" d="M255.447,24.842A79.377,79.377,0,0,0,212.823,1.454,83.187,83.187,0,0,0,199.441.011a81.838,81.838,0,0,0-13.689,1,77.3,77.3,0,0,0-23.713,7.793,79.12,79.12,0,0,0-21.434,16.036,7.735,7.735,0,0,0-2.173,5.246,7.55,7.55,0,0,0,2.173,5.246,7.466,7.466,0,0,0,5.246,2.173,7.574,7.574,0,0,0,5.246-2.173,72.808,72.808,0,0,1,8.235-7.47l-1.5,1.16a75.161,75.161,0,0,1,16.607-9.687l-1.772.748A70.96,70.96,0,0,1,190.573,15.2l-1.972.265a71.16,71.16,0,0,1,18.813.012l-1.972-.265a72.874,72.874,0,0,1,18.4,5.057l-1.772-.748a73.27,73.27,0,0,1,16.058,9.407l-1.5-1.16a72.788,72.788,0,0,1,8.331,7.568,7.419,7.419,0,0,0,10.492,0,7.465,7.465,0,0,0,2.173-5.246,7.924,7.924,0,0,0-2.173-5.246" transform="translate(-117.52 0.003)" fill="#fff"/>
      <path id="Path_68" data-name="Path 68" d="M898.058,540.443l-6.844,35.211a8.7,8.7,0,0,1-17.074-3.319l6.844-35.211a8.7,8.7,0,1,1,17.075,3.319" transform="translate(-741.955 -450.008)" fill="#fff"/>
      <path id="Path_69" data-name="Path 69" d="M1000.051,621.253c-1.4,7.2-5.777,12.888-11.179,15.458l6.6-33.979c4.046,4.407,5.973,11.324,4.574,18.52" transform="translate(-839.493 -511.684)" fill="#e5e5e5"/>
      <path id="Path_70" data-name="Path 70" d="M31.583,540.443l6.844,35.211A8.7,8.7,0,0,0,55.5,572.335l-6.844-35.211a8.7,8.7,0,1,0-17.074,3.319" transform="translate(-26.675 -450.008)" fill="#fff"/>
      <path id="Path_71" data-name="Path 71" d="M.453,621.253c1.4,7.2,5.777,12.888,11.179,15.458l-6.6-33.979C.981,607.14-.946,614.057.453,621.253" transform="translate(0 -511.684)" fill="#e5e5e5"/>
      <path id="Path_72" data-name="Path 72" d="M515.988,1052.922l-8.424,1.392a5.169,5.169,0,0,1-5.943-4.257l-.13-.787a5.169,5.169,0,0,1,4.257-5.943l8.424-1.393a3.219,3.219,0,0,1,3.7,2.651l.766,4.634a3.219,3.219,0,0,1-2.651,3.7" transform="translate(-425.677 -884.504)" fill="#fff"/>
      <path id="Path_73" data-name="Path 73" d="M511.168,491.5a4.712,4.712,0,1,1-4.712-4.712,4.712,4.712,0,0,1,4.712,4.712" transform="translate(-425.951 -413.254)" fill="#fff"/>
      <path id="Path_74" data-name="Path 74" d="M633.767,491.5a4.712,4.712,0,1,1-4.712-4.712,4.712,4.712,0,0,1,4.712,4.712" transform="translate(-530.03 -413.254)" fill="#fff"/>
      <path id="Path_75" data-name="Path 75" d="M379.145,491.5a4.712,4.712,0,1,0,4.712-4.712,4.712,4.712,0,0,0-4.712,4.712" transform="translate(-321.871 -413.254)" fill="#fff"/>
    </g>
  </g>
</svg>
