<svg xmlns="http://www.w3.org/2000/svg" width="54.64" height="54.745" viewBox="0 0 54.64 54.745">
  <path id="Icon_feather-phone-call" data-name="Icon feather-phone-call" d="M37.012,11.963A13.079,13.079,0,0,1,47.345,22.3M37.012,1.5a23.543,23.543,0,0,1,20.8,20.77M55.192,43.144v7.848a5.232,5.232,0,0,1-5.7,5.232,51.768,51.768,0,0,1-22.575-8.031,51.009,51.009,0,0,1-15.7-15.7A51.768,51.768,0,0,1,3.189,9.818a5.232,5.232,0,0,1,5.206-5.7h7.848a5.232,5.232,0,0,1,5.232,4.5A33.587,33.587,0,0,0,23.3,15.966a5.232,5.232,0,0,1-1.177,5.519l-3.322,3.322A41.854,41.854,0,0,0,34.5,40.5l3.322-3.322A5.232,5.232,0,0,1,43.342,36a33.587,33.587,0,0,0,7.351,1.831A5.232,5.232,0,0,1,55.192,43.144Z" transform="translate(-3.168 -1.5)" fill="#e9bd1e"/>
</svg>
