<svg xmlns="http://www.w3.org/2000/svg" width="27.346" height="17.354" viewBox="0 0 27.346 17.354">
  <path id="Icon_awesome-arrow-left" data-name="Icon awesome-arrow-left" d="M15.716,18.839l-1.355.882a2.05,2.05,0,0,1-2.069,0L.427,12a.742.742,0,0,1,0-1.347L12.292,2.927a2.05,2.05,0,0,1,2.069,0l1.355.882a.748.748,0,0,1-.024,1.363L8.337,9.735H25.878c.812,0,1.465.425,1.465.954V11.96c0,.529-.653.954-1.465.954H8.337l7.355,4.562A.745.745,0,0,1,15.716,18.839Z" transform="translate(0.004 -2.647)" fill="#161a49"/>
</svg>
