<svg xmlns="http://www.w3.org/2000/svg" width="30.625" height="30.625" viewBox="0 0 30.625 30.625">
  <path id="Icon_ionic-ios-arrow-dropleft-circle" data-name="Icon ionic-ios-arrow-dropleft-circle" d="M18.688,3.375A15.313,15.313,0,1,0,34,18.688,15.31,15.31,0,0,0,18.688,3.375Zm3.2,21.283a1.426,1.426,0,0,1,0,2.01,1.4,1.4,0,0,1-1,.412,1.428,1.428,0,0,1-1.009-.42l-6.92-6.942A1.419,1.419,0,0,1,13,17.76l7.023-7.045a1.421,1.421,0,0,1,2.01,2.01L16,18.688Z" transform="translate(-3.375 -3.375)" fill="#161a49"/>
</svg>
