<svg xmlns="http://www.w3.org/2000/svg" width="21.31" height="18.942" viewBox="0 0 21.31 18.942">
  <path id="Icon_awesome-id-card-alt" data-name="Icon awesome-id-card-alt" d="M19.534,2.368H14.207V5.92H7.1V2.368H1.776A1.776,1.776,0,0,0,0,4.144V17.167a1.776,1.776,0,0,0,1.776,1.776H19.534a1.776,1.776,0,0,0,1.776-1.776V4.144A1.776,1.776,0,0,0,19.534,2.368Zm-8.879,5.92a2.368,2.368,0,1,1-2.368,2.368A2.37,2.37,0,0,1,10.655,8.287Zm3.452,8.287H7.2a.584.584,0,0,1-.577-.733,2.369,2.369,0,0,1,2.253-1.635h.3a3.811,3.811,0,0,0,2.945,0h.3a2.371,2.371,0,0,1,2.253,1.635A.584.584,0,0,1,14.107,16.575ZM13.023,1.184A1.183,1.183,0,0,0,11.839,0H9.471A1.183,1.183,0,0,0,8.287,1.184V4.736h4.736Z" fill="#e9bd1e"/>
</svg>
