<svg xmlns="http://www.w3.org/2000/svg" width="36.017" height="33.246" viewBox="0 0 36.017 33.246">
  <g id="Group_16" data-name="Group 16" transform="translate(-350.75 -623.5)">
    <g id="Icon_ionic-md-qr-scanner" data-name="Icon ionic-md-qr-scanner" transform="translate(350.75 623.5)">
      <path id="Path_28" data-name="Path 28" d="M7.531,9.712A1.034,1.034,0,0,1,8.587,8.656h5.87V4.5H8.674a5.258,5.258,0,0,0-5.3,5.212v5.87H7.531Z" transform="translate(-3.375 -4.5)"/>
      <path id="Path_29" data-name="Path 29" d="M29.478,4.5H23.625V8.656h5.818a1.078,1.078,0,0,1,1.108,1.056v5.87h4.156V9.712A5.2,5.2,0,0,0,29.478,4.5Z" transform="translate(1.31 -4.5)"/>
      <path id="Path_30" data-name="Path 30" d="M30.551,28.284A1.034,1.034,0,0,1,29.5,29.34h-5.87v4.242H29.5a5.258,5.258,0,0,0,5.212-5.3V22.5H30.551Z" transform="translate(1.31 -0.336)"/>
      <path id="Path_31" data-name="Path 31" d="M8.587,29.34a1.034,1.034,0,0,1-1.056-1.056V22.5H3.375v5.784a5.332,5.332,0,0,0,5.3,5.3h5.784V29.34Z" transform="translate(-3.375 -0.336)"/>
    </g>
    <path id="Icon_material-face" data-name="Icon material-face" d="M10.15,12.959a1.277,1.277,0,1,0,1.277,1.277A1.277,1.277,0,0,0,10.15,12.959Zm6.128,0a1.277,1.277,0,1,0,1.277,1.277A1.277,1.277,0,0,0,16.278,12.959ZM13.214,3A10.214,10.214,0,1,0,23.428,13.214,10.218,10.218,0,0,0,13.214,3Zm0,18.385a8.182,8.182,0,0,1-8.171-8.171,8.281,8.281,0,0,1,.051-.878,10.277,10.277,0,0,0,5.321-5.485,10.187,10.187,0,0,0,8.335,4.321,9.969,9.969,0,0,0,2.3-.266,8.159,8.159,0,0,1-7.834,10.48Z" transform="translate(355.545 626.909)"/>
  </g>
</svg>
