<svg xmlns="http://www.w3.org/2000/svg" width="19.782" height="19.782" viewBox="0 0 19.782 19.782">
  <path id="Icon_awesome-key" data-name="Icon awesome-key" d="M19.782,6.8a6.8,6.8,0,0,1-8.069,6.682l-.928,1.044a.927.927,0,0,1-.693.311H8.655v1.546a.927.927,0,0,1-.927.927H6.182v1.546a.927.927,0,0,1-.927.927H.927A.927.927,0,0,1,0,18.855V15.839a.927.927,0,0,1,.272-.656L6.523,8.932A6.8,6.8,0,1,1,19.782,6.8Zm-6.8-1.855a1.855,1.855,0,1,0,1.855-1.855A1.855,1.855,0,0,0,12.982,4.946Z" fill="#e9bd1e"/>
</svg>
