<svg xmlns="http://www.w3.org/2000/svg" width="20.471" height="20.471" viewBox="0 0 20.471 20.471">
  <path id="Icon_awesome-phone-alt" data-name="Icon awesome-phone-alt" d="M19.887,14.466l-4.478-1.919a.96.96,0,0,0-1.12.276l-1.983,2.423A14.82,14.82,0,0,1,5.222,8.161L7.645,6.178a.957.957,0,0,0,.276-1.12L6,.58A.966.966,0,0,0,4.9.025L.744.984A.96.96,0,0,0,0,1.919,18.55,18.55,0,0,0,18.552,20.472a.96.96,0,0,0,.936-.744l.96-4.158a.971.971,0,0,0-.56-1.1Z" transform="translate(0 0)" fill="#e9bd1e"/>
</svg>
