<svg xmlns="http://www.w3.org/2000/svg" width="49.986" height="49.986" viewBox="0 0 49.986 49.986">
  <path id="Icon_awesome-user-circle" data-name="Icon awesome-user-circle" d="M24.993.563A24.993,24.993,0,1,0,49.986,25.556,24.989,24.989,0,0,0,24.993.563Zm0,9.675a8.868,8.868,0,1,1-8.868,8.868A8.869,8.869,0,0,1,24.993,10.237Zm0,34.668a19.312,19.312,0,0,1-14.764-6.873,11.236,11.236,0,0,1,9.927-6.027,2.466,2.466,0,0,1,.716.111,13.343,13.343,0,0,0,4.122.7,13.293,13.293,0,0,0,4.122-.7,2.466,2.466,0,0,1,.716-.111,11.236,11.236,0,0,1,9.927,6.027A19.312,19.312,0,0,1,24.993,44.9Z" transform="translate(0 -0.563)" fill="#161a49"/>
</svg>
