<svg xmlns="http://www.w3.org/2000/svg" width="17.653" height="16.295" viewBox="0 0 17.653 16.295">
  <g id="Icon_ionic-md-wallet" data-name="Icon ionic-md-wallet" transform="translate(-3.375 -4.5)">
    <path id="Path_21" data-name="Path 21" d="M9.94,16.267V9.028a1.811,1.811,0,0,1,1.812-1.812h8.36v-.9A1.8,1.8,0,0,0,18.316,4.5H5.242A1.834,1.834,0,0,0,3.375,6.282v12.73a1.834,1.834,0,0,0,1.867,1.782h13.07a1.8,1.8,0,0,0,1.795-1.812v-.9h-8.36A1.81,1.81,0,0,1,9.94,16.267Z" fill="#e9bd1e"/>
    <path id="Path_22" data-name="Path 22" d="M17.227,12.632v5.941a.681.681,0,0,0,.679.679h7.935a.681.681,0,0,0,.679-.679V12.632a.681.681,0,0,0-.679-.679H17.906A.681.681,0,0,0,17.227,12.632ZM20.5,16.956a1.359,1.359,0,1,1,1.269-1.269A1.359,1.359,0,0,1,20.5,16.956Z" transform="translate(-5.492 -2.955)" fill="#e9bd1e"/>
  </g>
</svg>
